<svg xmlns="http://www.w3.org/2000/svg" version="1.1" xmlns:xlink="http://www.w3.org/1999/xlink" xmlns:svgjs="http://svgjs.dev/svgjs" width="1500" height="1500" viewBox="0 0 1500 1500"><rect width="1500" height="1500" fill="#000000"></rect><g transform="matrix(0.6666666666666666,0,0,0.6666666666666666,249.86853567751638,389.5075268817205)"><svg viewBox="0 0 345 248" data-background-color="#e8b52c" preserveAspectRatio="xMidYMid meet" height="1078" width="1500" xmlns="http://www.w3.org/2000/svg" xmlns:xlink="http://www.w3.org/1999/xlink"><g id="tight-bounds" transform="matrix(1,0,0,1,0.04535519125684573,0.4000000000000057)"><svg viewBox="0 0 344.9092896174863 247.2" height="247.2" width="344.9092896174863"><g><svg viewBox="0 0 344.90928961748637 247.20000000000002" height="247.2" width="344.9092896174863"><g><svg viewBox="0 0 344.90928961748637 247.20000000000002" height="247.20000000000002" width="344.90928961748637"><g id="textblocktransform"><svg viewBox="0 0 344.90928961748637 247.20000000000002" height="247.20000000000002" width="344.90928961748637" id="textblock"><g><svg viewBox="0 0 344.90928961748637 247.20000000000002" height="247.20000000000002" width="344.90928961748637"><g transform="matrix(1,0,0,1,0,0)"><svg width="344.90928961748637" viewBox="-4.35 -41.35 76.6 54.900000000000006" height="247.20000000000002" data-palette-color="#1d597d"><path d="M63.55-33.45L63.55-33.45Q65.45-37.45 67.53-39.4 69.6-41.35 71.05-41.35L71.05-41.35Q72.25-41.35 72.25-40.1L72.25-40.1Q72.25-37.95 70.55-35.48 68.85-33 65.9-30.5 62.95-28 59.2-25.73 55.45-23.45 51.33-21.65 47.2-19.85 43.15-18.82 39.1-17.8 35.6-17.8L35.6-17.8Q30.15-17.8 26.2-19.13 22.25-20.45 20.13-22.9 18-25.35 18-28.7L18-28.7Q18-31.25 19.4-33.45 20.8-35.65 23.3-37.35 25.8-39.05 29.05-40 32.3-40.95 36.05-40.95L36.05-40.95Q40.45-40.95 44.9-39.9 49.35-38.85 53.45-37 57.55-35.15 60.93-32.7 64.3-30.25 66.55-27.43 68.8-24.6 69.5-21.65L69.5-21.65 69.15-21.55Q68.4-24.45 66.15-27.23 63.9-30 60.55-32.4 57.2-34.8 53.18-36.6 49.15-38.4 44.75-39.43 40.35-40.45 36.05-40.45L36.05-40.45Q32.35-40.45 29.18-39.55 26-38.65 23.6-37.08 21.2-35.5 19.85-33.38 18.5-31.25 18.5-28.75L18.5-28.75Q18.5-23.8 23.03-21.05 27.55-18.3 35.6-18.3L35.6-18.3Q39-18.3 42.98-19.33 46.95-20.35 51-22.1 55.05-23.85 58.78-26.08 62.5-28.3 65.42-30.75 68.35-33.2 70.05-35.58 71.75-37.95 71.75-40L71.75-40Q71.75-40.8 71.15-40.8L71.15-40.8Q69.95-40.8 68.08-39.13 66.2-37.45 64.3-33.35L64.3-33.35Q61.8-28 59.7-23.28 57.6-18.55 55.63-14.45 53.65-10.35 51.6-7 49.55-3.65 47.23-1.05 44.9 1.55 42.05 3.35 39.2 5.15 35.63 6.08 32.05 7 27.5 7L27.5 7Q22.55 7 18.3 5.55 14.05 4.1 10.83 1.5 7.6-1.1 5.8-4.58 4-8.05 4-12.05L4-12.05Q4-15.95 5.8-19.35 7.6-22.75 10.78-25.33 13.95-27.9 18.13-29.35 22.3-30.8 27.1-30.8L27.1-30.8Q32.35-30.8 36.43-29.05 40.5-27.3 42.83-24.25 45.15-21.2 45.15-17.3L45.15-17.3Q45.15-14.3 43.7-11.73 42.25-9.15 39.7-7.18 37.15-5.2 33.75-4.1 30.35-3 26.45-3L26.45-3Q22.5-3 19.58-4.2 16.65-5.4 15.05-7.55 13.45-9.7 13.45-12.6L13.45-12.6Q13.45-15.55 15.2-17.9 16.95-20.25 19.95-21.63 22.95-23 26.7-23L26.7-23Q30.75-23 33.27-21.33 35.8-19.65 35.8-17L35.8-17Q35.8-15.15 34.6-13.65 33.4-12.15 31.35-11.28 29.3-10.4 26.7-10.4L26.7-10.4Q25.3-10.4 24.4-10.98 23.5-11.55 23.5-12.45L23.5-12.45Q23.5-13.75 25.53-14.48 27.55-15.2 30.8-15.2L30.8-15.2Q36.1-15.2 40.13-13.43 44.15-11.65 46.43-8.55 48.7-5.45 48.7-1.35L48.7-1.35Q48.7 1.8 46.95 4.5 45.2 7.2 42.05 9.22 38.9 11.25 34.73 12.4 30.55 13.55 25.7 13.55L25.7 13.55Q19.1 13.55 13.6 11.75 8.1 9.95 4.08 6.7 0.05 3.45-2.15-1.03-4.35-5.5-4.35-10.8L-4.35-10.8Q-4.35-15.8-2.25-20.38-0.15-24.95 3.73-28.65 7.6-32.35 12.9-34.65L12.9-34.65 13.15-34.2Q8-31.95 4.17-28.33 0.35-24.7-1.73-20.18-3.8-15.65-3.8-10.7L-3.8-10.7Q-3.8-5.5-1.63-1.15 0.55 3.2 4.5 6.38 8.45 9.55 13.85 11.3 19.25 13.05 25.7 13.05L25.7 13.05Q30.45 13.05 34.52 11.95 38.6 10.85 41.68 8.88 44.75 6.9 46.48 4.28 48.2 1.65 48.2-1.35L48.2-1.35Q48.2-5.25 45.98-8.28 43.75-11.3 39.83-13 35.9-14.7 30.85-14.7L30.85-14.7Q27.65-14.7 25.83-14.08 24-13.45 24-12.45L24-12.45Q24-11.8 24.78-11.35 25.55-10.9 26.7-10.9L26.7-10.9Q29.15-10.9 31.08-11.7 33-12.5 34.15-13.9 35.3-15.3 35.3-17.05L35.3-17.05Q35.3-19.45 32.88-20.98 30.45-22.5 26.7-22.5L26.7-22.5Q23.1-22.5 20.2-21.2 17.3-19.9 15.63-17.65 13.95-15.4 13.95-12.6L13.95-12.6Q13.95-9.85 15.5-7.8 17.05-5.75 19.88-4.63 22.7-3.5 26.45-3.5L26.45-3.5Q30.2-3.5 33.5-4.58 36.8-5.65 39.3-7.55 41.8-9.45 43.23-11.95 44.65-14.45 44.65-17.3L44.65-17.3Q44.65-21.05 42.38-23.98 40.1-26.9 36.13-28.6 32.15-30.3 27.1-30.3L27.1-30.3Q22.45-30.3 18.35-28.88 14.25-27.45 11.15-24.95 8.05-22.45 6.28-19.13 4.5-15.8 4.5-12.05L4.5-12.05Q4.5-8.8 6.13-5.95 7.75-3.1 10.6-0.95 13.45 1.2 17.23 2.43 21 3.65 25.3 3.65L25.3 3.65Q28.55 3.65 31.5 3.08 34.45 2.5 37.18 1.23 39.9-0.05 42.5-2.1 45.1-4.15 47.65-7.05 50.2-9.95 52.78-13.8 55.35-17.65 58.03-22.53 60.7-27.4 63.55-33.45Z" opacity="1" transform="matrix(1,0,0,1,0,0)" fill="#ffffff" class="wordmark-text-0" data-fill-palette-color="primary" id="text-0"></path></svg></g></svg></g></svg></g></svg></g></svg></g><defs></defs></svg><rect width="344.9092896174863" height="247.2" fill="none" stroke="none" visibility="hidden"></rect></g></svg></g></svg>